<svg xmlns="http://www.w3.org/2000/svg" fill-rule="evenodd" stroke-linejoin="round" stroke-miterlimit="2" clip-rule="evenodd" viewBox="0 0 24 24" id="facebook">
  <g transform="translate(-40 -40)">
    <rect width="24" height="24" x="40" y="40" fill="none"></rect>
    <path fill="#2c2c2c" d="M9.1,9.1L9.1,7C9.1,3.763 11.763,1.1 15,1.1L18,1.1C18.497,1.1 18.9,1.503 18.9,2L18.9,6C18.9,6.497 18.497,6.9 18,6.9C18,6.9 15,6.9 15,6.9C14.945,6.9 14.9,6.945 14.9,7L14.9,9.1L18,9.1C18.277,9.1 18.539,9.228 18.709,9.446C18.88,9.665 18.94,9.949 18.873,10.218L17.873,14.218C17.773,14.619 17.413,14.9 17,14.9L14.9,14.9L14.9,22C14.9,22.497 14.497,22.9 14,22.9L10,22.9C9.503,22.9 9.1,22.497 9.1,22L9.1,14.9L7,14.9C6.503,14.9 6.1,14.497 6.1,14L6.1,10C6.1,9.503 6.503,9.1 7,9.1L9.1,9.1ZM17.1,2.9L15,2.9C12.751,2.9 10.9,4.751 10.9,7L10.9,10C10.9,10.497 10.497,10.9 10,10.9L7.9,10.9L7.9,13.1L10,13.1C10.497,13.1 10.9,13.503 10.9,14L10.9,21.1L13.1,21.1L13.1,14C13.1,13.503 13.503,13.1 14,13.1L16.297,13.1L16.847,10.9L14,10.9C13.503,10.9 13.1,10.497 13.1,10C13.1,10 13.1,7 13.1,7C13.1,5.958 13.958,5.1 15,5.1L17.1,5.1L17.1,2.9Z" transform="translate(40 40)"></path>
  </g>
</svg>
